<svg width="358" height="400" viewBox="0 0 358 400" fill="none" xmlns="http://www.w3.org/2000/svg">
<path fill-rule="evenodd" clip-rule="evenodd" d="M324.347 24.6893C324.173 24.6672 324.013 24.645 323.86 24.6236C323.889 20.4044 323.923 16.2892 323.802 12.1831C323.645 6.83251 321.116 4.13082 316.008 3.60409C313.657 3.36251 311.275 3.39233 308.907 3.40991C274.429 3.66601 239.952 3.98633 205.474 4.19809C177.838 4.36704 150.2 4.37087 122.563 4.51994C94.0069 4.67437 65.4506 4.91824 36.8943 5.117C28.7347 5.17358 20.5751 5.16517 12.4163 5.27449C7.06536 5.34635 4.96611 7.0695 4.26322 12.7427C3.68774 17.3893 3.78546 22.1298 3.56685 27.2442C3.65371 27.2542 3.73117 27.2641 3.81442 27.274C3.81659 27.8436 3.82165 28.4093 3.83251 28.9735C3.97729 36.6978 4.18359 44.4207 4.30086 52.145C4.74388 81.3299 5.15576 110.516 5.59009 139.701C5.94479 163.594 6.32121 187.485 6.67881 211.378C7.22461 247.858 7.76028 284.339 8.30681 320.82C8.3763 325.49 8.48199 330.16 8.57827 335.181C115.47 334.48 221.976 333.784 328.922 333.084C327.393 230.077 325.873 127.564 324.347 24.6893Z" fill="white"/>
<path fill-rule="evenodd" clip-rule="evenodd" d="M316.301 0.164086C323.33 1.01343 326.782 5.0048 327.368 12.4379C327.444 13.4049 327.434 14.3804 327.445 15.3529C327.761 41.0548 328.045 66.7575 328.396 92.4587C328.692 114.129 329.072 135.797 329.403 157.467C329.86 187.335 330.278 217.203 330.765 247.069C331.211 274.435 331.756 301.799 332.192 329.164C332.32 337.263 332.608 336.382 325.46 336.431C273.227 336.795 220.992 337.157 168.758 337.521V337.554C121.129 337.837 73.4981 338.116 25.8683 338.408C20.6064 338.44 15.3452 338.576 10.0826 338.603C5.36799 338.622 5.32601 338.584 5.24349 333.427C4.9467 314.813 4.67814 296.199 4.40234 277.585C3.80369 237.159 3.21445 196.734 2.60784 156.308C2.09461 122.134 1.56907 87.9597 1.03558 53.7865C0.85171 41.9783 0.601972 30.1708 0.441761 18.3626C0.418107 16.4323 0.606315 14.4798 0.885009 12.5686C2.15252 3.88789 6.64419 1.37044 14.0553 1.35515C33.2518 1.3154 52.4498 1.65636 71.6471 1.57609C114.145 1.39796 156.641 1.04477 199.139 0.783318C235.189 0.560853 271.239 0.368968 307.289 0.162557C310.295 0.144974 313.335 -0.195221 316.301 0.164086ZM3.82613 31.3887C3.82613 33.7173 3.79283 35.7837 3.83265 37.8486C3.97742 45.3481 4.18373 52.8477 4.301 60.3481C4.74401 88.6875 5.15517 117.027 5.5895 145.367C5.94493 168.566 6.32134 191.766 6.67822 214.966C7.22474 250.389 7.76042 285.813 8.30622 321.236C8.37644 325.771 8.48212 330.305 8.57768 335.18C115.469 334.501 221.976 333.825 328.921 333.145C327.393 233.123 325.874 133.582 324.347 33.6882C323.218 33.5476 322.57 33.413 321.92 33.3931C313.242 33.1317 304.563 32.6157 295.888 32.6868C268.129 32.9146 240.372 33.559 212.613 33.6737C175.507 33.8274 138.399 33.7662 101.294 33.5407C81.1676 33.4184 61.043 32.8351 40.9213 32.3236C29.4833 32.0331 18.0518 31.4582 6.61669 31.0412C5.76178 31.0133 4.89892 31.2495 3.82613 31.3887ZM308.908 3.41008C274.43 3.66619 239.952 3.98651 205.474 4.19827C177.837 4.36722 150.2 4.37104 122.563 4.52012C94.007 4.67454 65.4507 4.91765 36.8944 5.11718C28.7348 5.17375 20.5753 5.16534 12.4164 5.27466C7.06549 5.34652 4.96624 7.06891 4.26335 12.7421C3.68787 17.3894 3.78559 22.13 3.56698 27.2444C5.29416 27.4432 6.31555 27.6282 7.34201 27.6679C20.6187 28.1763 33.8917 28.8162 47.1728 29.122C67.9561 29.5998 88.7437 30.008 109.531 30.1609C159.141 30.5263 208.748 30.6074 258.357 29.5111C279.66 29.0402 300.984 29.7183 322.298 29.8498C322.905 29.8536 323.514 29.5768 323.84 29.4981C323.84 23.5351 323.97 17.8542 323.803 12.1825C323.645 6.83268 321.116 4.13099 316.008 3.60426C313.657 3.36192 311.275 3.3925 308.908 3.41008ZM73.8017 17.7036C73.9682 21.3625 70.149 25.3041 66.3638 25.3798C62.832 25.4494 60.3679 22.9771 60.2745 19.2685C60.1645 14.8773 63.4661 11.0228 67.4388 10.9043C70.0896 10.8256 73.6627 14.6434 73.8017 17.7036ZM22.0169 9.82953C26.843 10.0382 29.8065 12.7269 29.6864 16.7879C29.5662 20.8526 24.7951 25.003 20.5025 24.7752C17.1784 24.5994 14.3763 21.1018 14.5153 17.3016C14.6659 13.2017 18.2165 9.6644 22.0169 9.82953ZM46.3205 11.8049C49.528 11.9127 52.0268 14.9286 51.8726 18.5071C51.7293 21.8502 48.3249 24.8286 44.7098 24.7744C41.3959 24.7239 39.1779 22.4404 39.2163 19.1195C39.2634 15.1701 42.6511 11.6818 46.3205 11.8049ZM67.1304 14.4271C65.5451 14.4209 63.6218 16.7496 63.5284 18.7907C63.4408 20.7042 64.6106 22.0169 66.3551 21.9618C68.1989 21.9045 70.3741 19.8159 70.4081 18.0714C70.4364 16.6234 68.4652 14.4324 67.1304 14.4271ZM46.0591 15.2359C44.4861 15.2122 42.308 17.3267 42.5556 19.0254C42.6917 19.9589 43.6993 20.7509 44.0395 21.2249C46.5355 21.3005 48.4494 19.8641 48.5978 18.3664C48.7382 16.9476 47.3665 15.2558 46.0591 15.2359ZM22.4439 13.5174C19.4898 13.564 17.6678 15.2635 17.8198 17.8329C17.9363 19.8076 19.3342 21.2471 21.1062 21.2158C23.55 21.1722 26.447 18.5859 26.3833 16.5042C26.3239 14.5785 24.874 13.4792 22.4439 13.5174Z" fill="black"/>
<path fill-rule="evenodd" clip-rule="evenodd" d="M192.463 91.5406L193.132 92.3418C194.894 94.4709 199.535 100.227 199.712 101.985L199.718 102.084C199.718 103.152 200.791 105.353 198.792 108.467C199.125 108.546 199.458 108.629 199.789 108.715C200.181 106.062 200.668 103.323 201.265 100.503L197.002 95.2784C196.267 94.3872 195.796 93.8246 195.587 93.5907C204.831 95.4778 210.534 97.7821 212.696 100.503L213.002 100.899C216.426 105.415 224.694 119.527 229.413 145.319L230.859 153.36C234.27 172.463 232.985 169.336 218.806 173.638C208.303 176.825 203.051 180.561 203.051 184.847C195.404 181.168 190.904 177.346 189.554 173.381C184.72 174.314 179.113 174.527 172.734 174.019L172.023 173.96L173.436 188.079C175.666 190.294 177.054 193.411 177.054 196.864C177.054 203.583 171.798 209.03 165.314 209.03C158.83 209.03 153.573 203.583 153.573 196.864C153.573 195.858 153.691 194.881 153.913 193.946L153.565 189.778C152.602 178.516 151.662 169.877 150.745 163.861L150.459 164.681C147.226 173.839 144.24 178.418 141.501 178.418C136.791 178.418 132.916 174.686 128.149 174.686C123.383 174.686 113.092 178.018 105.705 174.686C100.78 172.464 94.2404 171.092 86.0861 170.569C97.1079 162.037 105.338 151.914 112.345 139.106C117.078 130.452 121.272 119.589 125.32 110.914C135.36 89.4003 155.233 79.0602 192.463 91.5406ZM141.654 132.331C140.359 132.403 140.111 132.671 140.089 133.896C140.378 133.691 140.669 133.473 140.961 133.239L141.654 132.331Z" fill="white"/>
<path fill-rule="evenodd" clip-rule="evenodd" d="M190.575 89.6346C193.114 90.7289 196.663 93.2177 197.487 94.2167C199.721 94.3593 203.662 94.4921 206.316 95.6285C211.514 97.077 214.155 100.524 217.156 104.377C221.405 109.83 223.917 115.981 225.466 122.415C226.875 128.273 228.025 134.188 229.072 140.109C230.279 146.929 232.772 153.308 236.586 159.293C237.039 160.003 237.65 160.681 237.866 161.447C238.019 161.988 237.841 162.919 237.42 163.191C236.945 163.497 235.751 163.526 235.365 163.203C234.387 162.386 233.58 161.363 232.897 160.321C228.11 153.013 226.112 144.933 224.51 136.693C223.233 130.127 221.738 123.57 219.801 117.139C218.123 111.569 215.034 106.515 210.375 102.371C207.066 99.427 204.633 98.4641 200.087 98.3597C200.269 99.054 200.46 99.6672 200.588 100.292C200.981 102.223 201.07 104.075 200.848 105.82C200.886 105.835 200.918 105.851 200.946 105.869C202.661 107.009 205.332 108.247 206.561 109.786C212.24 116.894 215.585 124.86 215.923 133.826C216.143 139.664 216.009 145.45 214.45 151.177C212.925 156.789 210.149 161.122 206.466 164.497C206.635 164.825 206.812 165.144 207.034 165.393C208.418 166.945 209.814 168.653 211.622 169.685C214.383 171.261 217.516 172.285 220.453 173.613C220.727 173.738 220.988 173.888 221.238 174.051C222.821 175.075 221.728 177.333 219.852 176.883C219.691 176.844 219.529 176.792 219.368 176.73C215.815 175.337 212.336 173.781 208.862 172.226C208.021 171.85 207.271 171.323 206.657 170.678C205.611 169.58 204.547 168.447 203.814 167.175C203.746 167.058 203.674 166.936 203.599 166.811C200.029 169.353 195.836 171.232 191.246 172.658C194.113 178.131 199.305 181.269 204.887 184.043C204.992 184.096 205.019 184.286 205.24 184.727C204.327 186.45 202.931 186.636 201.445 185.993C195.369 183.359 190.473 179.567 187.882 173.608L187.826 173.622C183.576 174.706 178.902 174.332 174.066 174.649C174.148 175.563 174.209 176.797 174.377 178.016C175.069 183.065 175.797 188.11 176.51 193.157C176.541 193.382 176.562 193.607 176.572 193.833C176.627 195.098 176.637 196.534 174.863 196.508C174.187 196.497 173.116 195.085 172.946 194.193C172.254 190.559 171.584 185.504 171.206 181.829C170.538 178.893 170.867 178.571 169.833 177.519L169.738 177.424C169.339 177.032 168.254 175.836 167.95 175.376C165.769 172.073 165.124 171.712 163.449 168.281C163.409 168.111 163.396 167.935 163.403 167.755C163.454 166.464 164.713 165.544 166.069 165.79C166.485 165.865 166.853 165.988 167.116 166.218C174.199 172.412 182.352 172.077 190.569 169.29C202.401 165.278 210.403 158.013 211.832 145.606C212.945 135.959 212.588 126.522 207.446 117.829C205.713 114.9 203.808 112.431 200.946 109.717C200.789 109.526 200.442 109.284 200.045 109.024C198.782 112.284 196.217 115.024 192.307 117.009C187.987 119.203 183.175 120.711 178.427 122.102C176.499 122.667 174.912 123.382 173.274 124.402C170.544 126.104 167.681 127.757 164.621 128.887C160.164 130.532 155.348 131.249 150.911 133.141C149.098 133.914 146.772 133.726 144.249 133.791C143.837 133.801 143.465 133.638 143.221 133.375L143.595 133.269C141.6 133.863 139.883 134.014 137.986 134.779C136.367 135.432 134.855 136.576 133.642 137.802C129.808 141.682 130.703 146.19 135.981 148C139.334 149.151 143.06 149.446 146.654 149.864C150.818 150.346 151.538 150.679 151.939 154.315C153.235 166.054 154.44 177.802 155.632 189.551C155.789 191.1 155.792 192.686 155.612 194.229C155.552 194.738 154.715 195.5 154.182 195.539C153.611 195.581 152.655 195.025 152.446 194.52C152.077 193.628 152.135 192.577 152.034 191.592C151.307 184.511 150.582 177.429 149.853 170.348C147.793 173.769 145.139 176.855 142.254 179.81C141.862 180.211 141.383 180.751 140.876 180.815C140.557 180.856 140.233 180.862 139.905 180.848C138.719 180.8 137.855 179.694 138.344 178.74C138.383 178.663 138.431 178.589 138.487 178.522C140.087 176.565 141.965 174.784 143.57 172.831C146.073 169.785 148.192 166.564 149.074 162.797C148.824 160.366 148.572 157.935 148.32 155.504C148.264 154.964 148.026 154.44 147.826 153.747C144.224 153.266 141.03 153.024 137.928 152.385C132.904 151.352 128.539 149.143 127.697 143.92C126.912 139.045 129.755 135.42 133.984 132.911C136.119 131.645 138.611 130.859 141.019 130.064C141.585 129.878 142.26 129.828 142.915 129.882C142.905 126.88 142.901 124.05 142.991 121.222C142.994 121.089 143.043 120.957 143.121 120.827C143.669 119.911 145.118 119.729 145.972 120.433C146.155 120.583 146.285 120.742 146.319 120.916C146.745 123.05 146.869 125.233 147.05 127.402C147.126 128.313 147.063 129.234 147.063 130.359C152.14 130.179 155.32 127.688 157.475 124.31C159.806 120.656 161.527 116.693 163.585 112.896C164.239 111.691 164.161 109.277 166.494 110.07C168.8 110.854 167.669 112.857 166.983 114.325C165.184 118.171 163.276 121.977 161.2 126.233C167.338 124.771 171.876 122.014 175.028 117.651C177.09 114.798 178.738 111.705 180.545 108.707C180.978 107.989 181.146 107.092 181.729 106.513L181.744 106.498C182.729 105.545 184.587 106.072 184.895 107.341C184.936 107.513 184.941 107.676 184.892 107.824C184.29 109.636 183.296 111.351 182.381 113.072C181.554 114.626 180.626 116.137 179.307 118.423C184.829 116.933 189.323 115.442 192.923 112.415C198.582 107.656 198.748 100.653 193.336 95.6728C191.975 94.4208 190.356 93.2778 188.628 92.4822C176.4 86.8575 154.006 85.0217 139.051 96.6402C133.376 101.049 129.458 106.531 126.563 112.583C123.81 118.341 121.227 124.195 119.13 130.165C113.761 145.448 103.645 157.853 90.7925 168.682C89.6882 169.613 88.5352 170.576 87.2119 171.192C86.5146 171.517 85.5916 171.457 84.7063 171.46C84.3161 171.461 83.962 171.26 83.8042 170.941C83.6825 170.695 83.7321 170.41 83.9259 170.206C84.744 169.34 85.5152 168.43 86.4433 167.674C99.8559 156.738 110.364 144.14 115.798 128.371C118.036 121.879 120.945 115.533 124.079 109.336C129.021 99.5651 136.631 91.8389 148.038 87.8768C162.419 82.8826 176.724 83.6639 190.575 89.6346ZM123.852 156.306C123.813 156.403 123.768 156.497 123.715 156.586C119.557 163.465 115.238 170.268 108.083 175.173C107.025 175.898 105.805 176.542 104.543 176.892C103.888 177.074 102.615 176.728 102.286 176.257C101.986 175.827 102.325 174.514 102.82 174.263C111.315 169.952 115.524 162.573 120.191 155.517C120.288 155.369 120.383 155.217 120.479 155.067C121.55 153.401 124.564 154.496 123.852 156.306ZM138.051 156.029C138.136 156.21 138.19 156.392 138.199 156.577C138.25 157.604 137.916 158.761 137.359 159.677C134.277 164.75 131.129 169.793 127.884 174.785C127.174 175.877 126.177 176.78 124.403 176.936C123.606 177.006 122.964 176.358 123.156 175.668C123.339 175.008 123.512 174.424 123.882 173.965C128.394 168.375 132.475 162.604 134.75 155.94C134.795 155.807 134.877 155.684 134.986 155.569C135.837 154.666 137.542 154.942 138.051 156.029Z" fill="black"/>
<path fill-rule="evenodd" clip-rule="evenodd" d="M153.452 192.825C160.747 192.101 168.378 192.463 176.346 193.912L209.527 195.466L229.312 208.13L243.268 233.587L254.807 269.117L299.582 238.579L305.532 243.656L319.81 227.062L329.488 221.685L331.369 225.606L323.961 236.078L336.467 227.948L353.444 222.836L356.45 225.606L341.383 238.579L343.131 246.082L346.09 246.455V254.051L339.416 261.662L321.335 269.117L311.359 277.962L283.754 306.187L259.905 321.315L248.902 319.576L232.382 301.699L243.268 332.634L222.33 343.855L211.76 344.941L209.527 341.331L167.18 346.712L140.671 350.224L117.681 344.941L130.701 370.605V373.896H127.364L119.172 366.491L114.061 390.337L110.826 394.498L106.766 391.532L102.025 396.735L100.403 394.498L102.025 378.473L90.9518 386.163L89.4133 384.74L90.9518 380.924L100.403 372.32L60.0466 338.162L42.0062 308.575L26.3181 275.074L24.6062 258.3V254.051L31.2687 240.934L69.4012 216.007L116.05 200.356C133.69 196.06 146.158 193.55 153.452 192.825ZM116.959 244.118L95.0795 252.452L66.8693 267.01C75.073 281.16 81.6936 291.738 86.731 298.743C91.7684 305.749 100.04 315.88 111.545 329.138L116.959 330.992V244.118Z" fill="white"/>
<path fill-rule="evenodd" clip-rule="evenodd" d="M150.781 190.412C152.717 189.812 154.818 190.913 155.312 192.879C155.444 193.405 155.545 193.967 155.625 194.544C156.574 201.329 157.525 208.112 158.483 214.894C158.667 216.199 158.885 217.5 159.121 219.017C165.887 220.734 172.158 220.218 178.586 216.963C177.747 213.064 176.92 209.321 176.143 205.567C175.359 201.776 174.515 197.992 173.905 194.171C173.375 190.853 174.05 190.359 177.339 190.608C179.1 190.742 180.89 190.461 182.667 190.429C192.424 190.25 201.987 191.374 211.179 194.841C222.055 198.944 230.295 206.25 236.301 216.07C242.483 226.175 246.509 237.238 250.018 248.493C251.777 254.134 253.402 259.816 255.184 265.805C260.988 261.689 266.255 257.812 271.669 254.152C279.319 248.978 287.061 243.941 294.795 238.894C300.098 235.434 300.122 235.472 305.27 239.422C307.505 236.68 309.558 233.747 312.036 231.23C314.837 228.384 317.921 225.787 321.08 223.335C322.445 222.275 324.253 221.691 325.948 221.178C328.062 220.539 330.454 219.69 332.151 221.872C333.67 223.821 332.622 225.83 331.61 227.709C331.475 227.96 330.638 229.5 329.869 229.879C331.554 229.055 334.234 227.697 335.57 227.024C340.762 224.41 345.948 221.778 351.865 221.201C353.537 221.038 355.26 220.381 356.726 222.251C358.129 224.042 357.935 226.628 356.353 228.264C355.024 229.64 353.479 230.849 351.949 232.005C348.987 234.243 345.222 236.384 342.042 238.615C343.283 239.93 344.446 242.729 343.888 244.522C344.702 244.77 346.067 246.022 346.547 247.136C348.342 251.301 347.17 256.82 343.065 260.044C339.833 262.581 336.197 265.132 332.33 266.226C322.58 268.985 315.441 274.735 308.909 282.308C299.669 293.017 289.608 303.071 278.233 311.579C273.622 315.028 268.548 318.012 263.334 320.461C255.265 324.25 247.961 322.132 241.622 316.148C240.705 315.283 239.531 314.626 234.459 306.405C235.471 309.156 240.292 319.391 241.329 322.132C242.277 324.639 243.297 327.12 244.241 329.629C244.805 331.129 244.775 332.476 243.342 333.622C234.598 340.616 224.992 345.757 213.823 347.631C210.836 348.133 208.991 346.745 207.87 343.956C202.792 344.848 197.878 346.023 192.896 346.52C183.721 347.435 182.491 347.276 173.301 348.045C171.938 348.159 165.43 347.632 163.534 349.009C160.361 351.539 158.472 350.831 157.024 351.096C147.828 352.783 138.636 352.139 129.447 350.971C127.101 350.673 124.747 350.449 121.757 350.121C122.588 351.561 123.152 352.509 123.689 353.472C126.153 357.888 128.714 362.255 131.009 366.757C131.733 368.177 132.161 369.888 132.238 371.504C132.409 375.094 128.596 377.451 125.554 375.539C124.561 374.914 123.718 374.035 122.847 373.229C121.988 372.436 121.18 371.587 119.746 370.162C118.92 373.894 118.197 376.978 117.56 380.081C116.787 383.85 116.097 387.636 115.358 391.412C115.264 391.895 115.154 392.374 115.007 392.844C113.371 398.082 108.948 398.785 106.591 394.662C105.704 395.687 104.418 398.227 103.358 399.097C101.312 400.78 99.2115 400.043 98.6524 397.452C98.1733 395.228 98.2335 392.843 98.3303 390.543C98.398 388.935 99.275 384.439 99.8498 382.298L99.8982 382.12L99.8829 382.158C99.155 383.83 97.3416 385.331 96.584 385.787L96.5013 385.835C95.3318 386.485 94.2213 387.293 92.9808 387.749C91.1572 388.417 89.1482 389.025 87.5837 387.254C85.9256 385.376 86.964 383.425 88.1847 381.985C90.5737 379.168 93.2753 376.618 96.275 373.513C94.9162 372.312 93.3511 370.852 91.7045 369.49C88.0315 366.452 84.3149 363.465 80.62 360.454C65.0626 347.773 52.3665 332.653 42.9956 314.92C37.0865 303.735 31.7468 292.238 26.4596 280.739C23.5315 274.37 21.6173 267.627 21.1831 260.523C20.8137 254.468 22.2705 249.041 25.9122 244.16C29.6236 239.185 34.3199 235.297 39.4057 231.885C61.2155 217.249 84.481 205.786 110.217 199.857C121.378 197.285 132.594 194.966 143.767 192.442C145.994 191.938 148.173 191.222 150.781 190.412ZM114.804 348.088C114.835 348.118 114.045 350.215 114.01 350.294C110.303 358.353 108.199 363.94 102.541 373.903C101.865 375.092 101.111 375.493 99.7989 375.874C99.5523 375.946 98.6225 375.574 98.4356 375.743C96.1349 377.815 92.4177 380.506 90.9003 383.27C90.8482 384.263 91.8364 384.318 92.1821 384.14C94.479 382.955 99.0665 379.266 101.218 377.045C101.734 376.513 102.522 376.347 103.196 376.675C103.717 376.927 103.994 377.508 103.917 378.082C103.439 381.675 101.505 388.973 101.669 392.3L101.713 392.792C101.786 393.619 102.919 393.791 103.234 393.024C103.787 391.677 104.324 390.174 104.5 389.262C105.806 382.504 105.695 380.082 107.105 375.533C107.413 374.538 107.556 373.426 108.116 372.599C108.517 372.005 109.657 371.342 110.155 371.532C110.754 371.759 111.402 372.884 111.355 373.575C111.257 375.038 110.775 376.486 110.356 377.913C109.389 381.197 109.657 382.717 109.01 387.826C108.803 389.461 108.664 389.416 108.411 391.719C108.204 393.594 110.825 393.164 111.056 392.378C111.628 390.427 112.154 388.73 112.498 386.998C113.772 380.571 114.898 374.115 116.143 367.682C116.197 367.402 116.267 367.124 116.345 366.849C116.91 364.878 119.369 364.25 120.856 365.66C121.64 366.403 122.26 367.289 123.021 367.971C124.512 369.309 125.054 370.507 126.168 371.818C126.709 372.454 127.52 372.799 128.353 372.742L128.381 372.74C128.771 372.712 129.034 372.324 128.904 371.954C125.975 363.594 121.407 354.151 114.804 348.088ZM150.668 194.459C135.529 197.987 120.893 201.259 106.327 204.823C82.8953 210.558 61.8507 221.549 41.8697 234.759C37.0144 237.969 32.4944 241.623 28.9743 246.361C25.9202 250.473 24.6191 255.026 24.9307 260.179C25.3141 266.53 27.0317 272.533 29.5368 278.27C33.3479 286.999 37.5084 295.576 41.5235 304.217C53.9759 331.015 73.6181 351.635 97.0949 368.952C97.4283 369.198 97.8773 369.286 98.6074 369.585C99.4052 368.17 100.295 366.835 100.949 365.394C104.759 356.989 108.486 348.545 112.298 340.14C113.597 337.273 114.821 334.296 114.821 334.296C114.821 334.296 112.882 332.163 110.823 329.905C93.0061 310.371 76.669 289.742 64.0185 266.395C63.2427 264.964 62.4827 263.499 61.9691 261.965C61.8073 261.482 62.318 260.426 62.8039 260.172C63.289 259.917 64.363 260.102 64.7635 260.508C65.6651 261.417 66.3088 262.581 67.0359 263.61C73.4704 260.323 79.5367 256.83 85.9169 254.061C95.0541 250.096 104.42 246.658 113.692 243.001C114.383 242.728 115.071 242.412 115.792 242.256C118.013 241.774 118.85 242.345 119.092 244.55C119.206 245.58 119.128 246.633 119.13 247.675C119.142 254.973 119.18 262.272 119.158 269.571C119.108 286.1 119.227 302.635 118.825 319.156C118.773 321.305 118.24 326.399 118.241 326.389C118.287 326.011 121.34 328.804 122.227 329.727C125.148 332.762 126.694 336.552 124.19 340.322C123.185 341.836 122.437 343.522 121.412 345.43C133.803 348.045 145.563 348.048 157.607 346.292C157.889 295.622 156.734 245.371 150.668 194.459ZM179.471 221.077C172.813 224.016 166.223 224.042 159.248 223.366C159.553 225.338 159.671 227.18 159.977 229C161.413 237.51 163.359 245.968 164.206 254.537C167.027 283.08 166.294 311.651 164.035 340.203C163.921 341.637 164.022 343.087 164.024 344.793C178.363 344.451 192.211 343.749 205.823 340.22C205.705 339.365 205.716 338.919 205.577 338.526C198.801 319.228 194.342 299.342 190.556 279.285C187.107 261.002 183.675 242.716 180.206 224.436C180.001 223.359 179.8 222.274 179.471 221.077ZM235.217 221.928C224.996 200.919 203.419 191.76 178.002 194.985C178.364 197.203 178.62 199.109 178.99 200.993C183.481 223.919 187.996 246.841 192.493 269.767C196.532 290.361 200.381 311.006 207.081 330.956C208.577 335.411 210.685 339.659 212.516 344.017C223.499 342.216 232.37 337.498 240.505 331.031C239.722 329.119 239.06 327.625 238.494 326.096C234.361 314.957 229.625 303.995 226.268 292.625C220.581 273.363 215.755 253.845 210.615 234.423C210.28 233.157 210.206 231.77 210.309 230.463C210.351 229.934 211.115 229.267 211.696 229.046C212.074 228.902 212.881 229.316 213.197 229.717C213.635 230.27 213.849 231.028 214.061 231.728C217.852 244.261 221.602 256.806 225.412 269.333C229.097 281.445 232.887 293.522 238.873 304.757C240.061 306.988 241.28 309.214 242.648 311.336C246.415 317.181 253.565 319.785 260.171 317.664C268.143 315.104 274.852 310.289 280.8 304.662C290.96 295.051 300.694 284.987 310.57 275.077C311.704 273.94 312.609 272.575 313.513 271.45C308.449 261.192 303.539 251.246 298.655 241.352C298.098 241.509 297.775 241.521 297.548 241.674C284.624 250.458 271.714 259.264 258.784 268.041C256.084 269.874 254.305 272.27 253.526 275.475C253.141 277.055 252.602 278.651 251.808 280.056C251.752 280.155 251.683 280.246 251.602 280.332C250.626 281.367 248.772 280.877 248.505 279.479C248.473 279.315 248.47 279.159 248.507 279.012C249.102 276.615 249.896 274.239 250.885 271.973C251.45 270.677 251.935 269.459 252.563 268.4C252.563 268.4 251.484 266.226 251.217 265.422C249.435 260.055 248.126 254.521 246.155 249.23C242.732 240.042 239.494 230.723 235.217 221.928ZM217.481 333.775C217.772 334.246 217.928 334.774 217.92 335.315C217.899 336.76 217.192 337.853 215.522 338.026C214.038 338.179 212.343 336.579 212.447 334.841C212.448 334.829 212.449 334.819 212.449 334.808C212.623 332.426 216.203 331.702 217.481 333.775ZM115.42 247.023C105.448 248.735 74.2157 262.867 69.4985 267.779C81.0064 289.979 97.078 308.832 114.2 327.205C116.735 300.429 114.893 273.752 115.42 247.023ZM209.446 316.245C211.917 317.122 212.773 321.065 209.62 321.579C208.776 321.717 207.893 321.177 207.299 320.218C206.482 318.897 207.142 315.427 209.446 316.245ZM205.729 297.417C205.968 297.491 206.191 297.605 206.408 297.748C208.149 298.896 208.213 301.272 206.474 302.423C206.281 302.55 206.083 302.65 205.872 302.718C204.367 303.201 203.08 301.844 203.051 300.141C203.022 298.463 204.311 296.973 205.729 297.417ZM201.473 280.167C201.943 280.262 202.369 280.535 202.807 280.913C204.248 282.154 204.186 284.337 202.528 285.329C202.282 285.477 202.041 285.57 201.791 285.589C199.886 285.737 199.27 284.134 199.148 282.673C199.03 281.256 199.865 279.842 201.473 280.167ZM329.041 223.876C325.362 224.175 321.949 226.549 319.48 229.095C315.965 232.72 312.558 236.49 309.48 240.488C305.153 246.107 305.297 246.222 308.437 252.794C309.4 254.81 310.329 256.845 311.368 258.822C313.081 262.084 314.871 265.306 316.5 268.307C321.23 266.537 325.609 265.11 329.803 263.264C333.32 261.716 336.847 259.995 339.961 257.775C343.328 255.376 344.066 252.578 342.74 248.911C342.505 248.259 341.834 247.866 341.151 247.97C338.58 248.362 335.798 248.59 333.581 249.231C331.216 249.916 328.758 251.025 326.615 252.612C326.009 252.961 325.533 255.366 327.17 255.112C330.925 254.96 334.617 254.147 338.303 253.997C339.234 253.959 339.972 254.794 339.781 255.706C339.541 256.863 338.542 257.313 337.461 257.413C333.779 257.757 330.059 258.069 326.377 257.908C323.802 257.793 322.888 256.294 323.012 253.617C323.056 252.651 324.728 250.297 324.728 250.297C321.099 249.78 321.193 245.81 323.646 243.864C325.95 242.037 328.555 241.036 331.299 240.085C338.913 237.447 344.058 232.871 350.514 228.383C351.222 227.891 351.854 227.289 352.659 226.519C353.223 225.982 352.802 225.04 352.025 225.089C348.178 225.329 345.245 226.484 342.483 227.926C336.288 231.163 330.197 234.612 324.169 238.154C323.851 238.34 323.542 238.507 323.242 238.649C320.974 239.72 318.891 236.823 320.55 234.941C323.175 231.963 325.772 229.016 328.368 226.071C328.832 225.545 329.12 224.87 329.099 224.169C329.095 224.053 329.08 223.951 329.041 223.876ZM197.579 259.846C198.055 259.97 198.491 260.251 198.956 260.628C200.244 261.675 200.244 263.668 198.937 264.692C198.639 264.924 198.348 265.097 198.032 265.189C196.623 265.6 195.198 263.851 195.224 262.091C195.249 260.559 196.139 259.47 197.579 259.846ZM340.73 244.086C340.815 243.097 339.904 240.425 338.264 240.849C335.224 241.635 328.568 243.075 326.411 245.252C325.692 245.978 324.873 247.519 327.374 247.924C331.676 246.712 334.946 244.466 340.73 244.086ZM196.431 242.319C197.157 243.428 196.762 244.845 195.409 245.477C195.185 245.581 194.951 245.654 194.71 245.673C192.882 245.815 192.376 244.468 192.139 243.292C191.894 242.079 192.637 241.194 194.18 240.999C194.974 240.899 195.852 241.435 196.431 242.319ZM191.343 225.538C191.647 225.705 191.92 225.938 192.148 226.211C193.123 227.378 193.284 229.29 191.595 229.918C191.394 229.992 191.202 230.033 191.011 230.03C189.446 230.006 188.755 228.603 189.017 227.212C189.154 226.482 189.756 225.431 190.566 225.34C190.835 225.31 191.104 225.408 191.343 225.538ZM189.769 210.968L189.802 211.001C190.817 211.984 190.764 213.769 189.667 214.647C189.397 214.864 189.136 215.023 188.855 215.103C187.543 215.478 186.339 213.954 186.67 212.196C186.736 211.847 186.911 211.524 187.137 211.211C187.784 210.316 188.988 210.212 189.769 210.968Z" fill="black"/>
<path fill-rule="evenodd" clip-rule="evenodd" d="M181.795 143.886C182.346 144.461 182.537 145.368 182.928 146.11C184.598 149.283 185.342 149.621 188.897 148.769C190.016 148.501 191.404 148.064 191.647 149.548C191.766 150.268 190.74 151.42 189.951 151.979C189.625 152.21 189.277 152.358 188.915 152.461C187.574 152.843 186.127 152.72 184.84 152.18C181.666 150.848 178.752 147.582 179.111 144.743C179.17 144.269 179.599 143.543 179.962 143.472C180.543 143.358 181.421 143.494 181.795 143.886ZM210.422 132.383C211.876 132.948 211.289 134.207 210.772 135.244C209.236 138.327 205.803 139.838 202.55 138.781C201.492 138.437 200.191 137.647 198.9 137.022C199.348 138.4 199.095 139.35 198.849 140.332C197.875 144.231 193.307 145.911 190.088 143.506C189.558 143.11 189.064 142.113 189.254 141.435C189.496 140.571 190.009 140.481 190.633 140.536C191.425 140.605 192.011 140.798 192.564 140.917C193.774 141.176 195.164 141.085 195.256 139.723C195.326 138.698 195.421 137.269 194.594 136.712C193.677 136.094 191.41 136.358 190.223 136.04C190.195 136.032 190.167 136.023 190.138 136.014C188.9 135.608 188.513 133.903 189.524 133.08C189.592 133.024 189.663 132.977 189.74 132.938C191.553 132.012 195.628 132.613 197.603 134.591C198.743 132.828 199.783 132.532 201.472 133.885C204.737 136.5 204.999 136.332 208.033 133.317C208.612 132.743 209.822 132.149 210.422 132.383ZM183.442 133.784C184.123 134.302 184.123 135.471 183.819 135.98C182.278 138.567 180.043 140.187 176.857 140.09C174.235 140.074 172.236 138.833 170.672 136.841C169.954 135.926 169.256 134.72 170.562 133.92C171.1 133.59 172.264 134.118 173.066 134.446C173.55 134.645 173.845 135.264 174.297 135.599C176.197 137.008 177.866 137.008 179.727 135.573C180.396 135.055 180.888 134.268 181.608 133.872C182.118 133.592 183.186 133.589 183.442 133.784Z" fill="black"/>
</svg>
