<svg width="20" height="20" viewBox="0 0 20 20" fill="none" xmlns="http://www.w3.org/2000/svg">
<path fill-rule="evenodd" clip-rule="evenodd" d="M0 10C0 10.6904 0.559644 11.25 1.25 11.25L18.75 11.25C19.4404 11.25 20 10.6904 20 10C20 9.30964 19.4404 8.75 18.75 8.75L1.25 8.75C0.559644 8.75 0 9.30964 0 10Z" fill="#7D7D7D"/>
<path fill-rule="evenodd" clip-rule="evenodd" d="M10.8839 19.6339C11.372 19.1457 11.372 18.3543 10.8839 17.8661L3.01777 10L10.8839 2.13388C11.372 1.64573 11.372 0.854271 10.8839 0.366117C10.3957 -0.12204 9.60427 -0.12204 9.11612 0.366117L0.366117 9.11612C-0.122039 9.60427 -0.122039 10.3957 0.366117 10.8839L9.11612 19.6339C9.60427 20.122 10.3957 20.122 10.8839 19.6339Z" fill="#7D7D7D"/>
</svg>
