<svg width="13" height="15" viewBox="0 0 13 15" fill="none" xmlns="http://www.w3.org/2000/svg">
<path fill-rule="evenodd" clip-rule="evenodd" d="M0.853553 0.146447C0.658291 -0.0488155 0.341709 -0.0488155 0.146447 0.146447C-0.0488155 0.341709 -0.0488155 0.658291 0.146447 0.853553L6.14645 6.85355C6.34171 7.04882 6.65829 7.04882 6.85355 6.85355L12.8536 0.853553C13.0488 0.658291 13.0488 0.341709 12.8536 0.146447C12.6583 -0.0488155 12.3417 -0.0488155 12.1464 0.146447L6.5 5.79289L0.853553 0.146447ZM0.853553 8.14645C0.658291 7.95118 0.341709 7.95118 0.146447 8.14645C-0.0488155 8.34171 -0.0488155 8.65829 0.146447 8.85355L6.14645 14.8536C6.34171 15.0488 6.65829 15.0488 6.85355 14.8536L12.8536 8.85355C13.0488 8.65829 13.0488 8.34171 12.8536 8.14645C12.6583 7.95118 12.3417 7.95118 12.1464 8.14645L6.5 13.7929L0.853553 8.14645Z" fill="#7D7D7D"/>
</svg>
