<svg width="200" height="100" viewBox="0 0 200 100" fill="none" xmlns="http://www.w3.org/2000/svg">
<mask id="mask0_1429_164" style="mask-type:alpha" maskUnits="userSpaceOnUse" x="0" y="0" width="200" height="100">
<rect width="200" height="100" fill="#222222"/>
</mask>
<g mask="url(#mask0_1429_164)">
<path fill-rule="evenodd" clip-rule="evenodd" d="M117.539 18.7148V16.1413H118.387C118.599 16.1312 118.811 16.1553 119.016 16.2127C119.144 16.2585 119.253 16.3462 119.325 16.4617C119.401 16.573 119.441 16.7045 119.441 16.8391C119.443 17.0217 119.374 17.1977 119.249 17.3299C119.114 17.4719 118.93 17.556 118.736 17.5646C118.814 17.596 118.886 17.6424 118.947 17.7011C119.086 17.8579 119.208 18.029 119.311 18.2116L119.612 18.7148H119.126L118.907 18.3061C118.73 17.9876 118.596 17.7877 118.49 17.7074C118.397 17.642 118.284 17.6105 118.171 17.6181H117.938V18.7113L117.539 18.7148ZM117.938 17.2666H118.42C118.651 17.2666 118.809 17.2306 118.893 17.1586C118.933 17.1244 118.966 17.0814 118.988 17.033C119.01 16.9845 119.02 16.9317 119.019 16.8784C119.021 16.8055 118.999 16.7341 118.958 16.674C118.917 16.6127 118.858 16.5654 118.79 16.5384C118.66 16.5017 118.525 16.4869 118.39 16.4947H117.938V17.2666Z" fill="#949494"/>
<path fill-rule="evenodd" clip-rule="evenodd" d="M118.546 15C118.942 15.0028 119.33 15.1095 119.673 15.3096C120.038 15.5139 120.336 15.8209 120.53 16.1931C120.731 16.5606 120.836 16.973 120.837 17.3924C120.836 17.808 120.732 18.2169 120.534 18.5819C120.342 18.9527 120.048 19.2603 119.687 19.468C119.341 19.673 118.947 19.7817 118.546 19.783C118.144 19.7813 117.75 19.672 117.404 19.4662C117.043 19.258 116.749 18.9507 116.555 18.5801C116.356 18.2156 116.251 17.8065 116.251 17.3906C116.252 16.9711 116.358 16.5586 116.559 16.1913C116.754 15.8195 117.053 15.5126 117.417 15.3079C117.761 15.1099 118.149 15.0054 118.545 15.0045L118.546 15ZM118.545 15.3962C118.215 15.3985 117.89 15.4877 117.605 15.655C117.3 15.8262 117.052 16.0825 116.889 16.393C116.72 16.6988 116.632 17.0426 116.631 17.3924C116.631 17.7391 116.719 18.0801 116.885 18.3838C117.047 18.6926 117.293 18.9488 117.594 19.1226C117.882 19.2954 118.21 19.3878 118.545 19.3903C118.88 19.3879 119.208 19.2955 119.495 19.1226C119.797 18.9497 120.043 18.6933 120.205 18.3838C120.37 18.0798 120.457 17.7389 120.457 17.3924C120.456 17.0428 120.368 16.6991 120.2 16.393C120.038 16.0822 119.79 15.8257 119.485 15.655C119.199 15.4882 118.875 15.399 118.545 15.3962Z" fill="#949494"/>
<path fill-rule="evenodd" clip-rule="evenodd" d="M136.547 69.7874V68.6166H136.922C137.016 68.6119 137.11 68.623 137.201 68.6496C137.258 68.6706 137.306 68.7102 137.338 68.7621C137.371 68.8132 137.388 68.8726 137.389 68.9334C137.389 69.0168 137.357 69.0971 137.3 69.1574C137.241 69.2216 137.16 69.2598 137.073 69.2636C137.106 69.279 137.136 69.3001 137.162 69.326C137.223 69.3975 137.278 69.4752 137.323 69.558L137.457 69.7874H137.242L137.144 69.6035C137.099 69.5022 137.037 69.4098 136.96 69.3305C136.919 69.3012 136.869 69.287 136.819 69.2903H136.715V69.7874H136.547ZM136.724 69.1288H136.927C137 69.1363 137.074 69.1191 137.136 69.0797C137.155 69.0638 137.169 69.0439 137.179 69.0215C137.189 68.9991 137.194 68.9748 137.193 68.9503C137.193 68.9171 137.184 68.8844 137.165 68.8566C137.147 68.829 137.121 68.8076 137.091 68.7951C137.033 68.7785 136.973 68.7719 136.914 68.7754H136.713L136.724 69.1288Z" fill="#949494"/>
<path fill-rule="evenodd" clip-rule="evenodd" d="M136.985 68.099C137.161 68.1007 137.333 68.1494 137.484 68.24C137.647 68.3342 137.779 68.4741 137.865 68.6425C137.954 68.8095 138 68.996 138 69.1855C138 69.3749 137.954 69.5614 137.865 69.7285C137.781 69.8965 137.651 70.0365 137.49 70.1318C137.373 70.2012 137.244 70.246 137.11 70.2632C136.975 70.2805 136.839 70.2699 136.709 70.2321C136.579 70.1943 136.458 70.1301 136.354 70.0435C136.249 69.9569 136.163 69.8497 136.102 69.7285C136.013 69.5614 135.966 69.3749 135.966 69.1855C135.966 68.996 136.013 68.8095 136.102 68.6425C136.187 68.4739 136.319 68.334 136.482 68.24C136.633 68.1492 136.806 68.1006 136.982 68.099H136.985ZM136.982 68.2775C136.835 68.2783 136.691 68.3187 136.564 68.3944C136.429 68.4732 136.319 68.5901 136.248 68.7308C136.173 68.8697 136.134 69.0252 136.134 69.1832C136.134 69.3412 136.173 69.4967 136.248 69.6357C136.319 69.776 136.428 69.893 136.563 69.973C136.661 70.0316 136.769 70.0695 136.881 70.0843C136.994 70.0991 137.108 70.0904 137.217 70.0589C137.326 70.0273 137.427 69.9736 137.514 69.9009C137.602 69.8282 137.673 69.7383 137.725 69.6366C137.798 69.4978 137.836 69.3431 137.836 69.1859C137.836 69.0275 137.797 68.8715 137.723 68.7317C137.652 68.5907 137.541 68.4738 137.405 68.3953C137.279 68.3198 137.136 68.2794 136.99 68.2784L136.982 68.2775Z" fill="#949494"/>
<path d="M81.1876 15.7477H96.3859L103.415 23.081V33.7973H96.3859V30.4036L89.3665 23.081H89.3559V44.3885L96.3859 51.7207V59.0549H89.3559L81.1876 50.5332V15.7477Z" fill="#949494"/>
<path d="M96.3859 51.7207V40.9806H103.415V44.3876L110.445 51.7207V30.4036L103.427 23.081L103.415 23.0702V15.7477H110.445L118.543 24.1955V59.0549H103.415L96.3859 51.7207Z" fill="#949494"/>
<path d="M73.6008 78.6831H69.8873V74.6676H65.7136V78.6831H62V68.6165H65.7136V72.1271H69.8873V68.6165H73.6008V78.6831Z" fill="#949494"/>
<path d="M85.4127 78.6831H75.4182V68.6165H85.4127V71.0695H79.1318V72.4232H84.965V74.8808H79.1318V76.23H85.4127V78.6831Z" fill="#949494"/>
<path d="M92.3789 76.4978C93.5509 76.4978 94.2485 75.9757 94.5517 74.763H98.7387C98.502 76.089 98.0676 77.1598 97.159 77.8933C96.2503 78.6268 94.8283 79.0356 92.5633 79.0356C90.3116 79.0356 86.137 78.8661 86.137 73.6494C86.137 68.4327 90.3116 68.2641 92.5633 68.2641C94.8017 68.2641 98.252 68.5737 98.7387 72.5642H94.5517C94.4462 71.8451 93.9985 70.801 92.5633 70.801C91.0491 70.801 90.0873 71.604 90.0873 73.6494C90.0873 75.6946 91.0225 76.4978 92.3789 76.4978Z" fill="#949494"/>
<path d="M112.5 78.6831H107.562L104.996 74.8201L103.771 75.9757V78.6831H100.056V68.6165H103.771V72.1689L107.22 68.6165H112.144L107.943 72.508L112.5 78.6831Z" fill="#949494"/>
<path d="M122.969 78.6831H112.974V68.6165H122.969V71.0695H116.688V72.4232H122.521V74.8808H116.688V76.23H122.969V78.6831Z" fill="#949494"/>
<path fill-rule="evenodd" clip-rule="evenodd" d="M127.907 78.6831H124.193V68.6165H132.021C133.088 68.6165 133.734 68.7156 134.247 68.9832C134.945 69.3491 135.524 70.3218 135.524 71.4221C135.524 72.367 135.156 73.3816 134.076 73.7207V73.7484C134.626 73.9179 135.074 74.4257 135.14 75.2993L135.298 77.4989C135.339 77.9291 135.498 78.3392 135.758 78.6831H131.703C131.63 78.518 131.597 78.3098 131.572 77.9565C131.559 77.7802 131.547 77.5678 131.534 77.3065C131.525 77.1495 131.516 76.9749 131.505 76.7798C131.466 76.0328 131.229 75.5812 130.544 75.5812H127.907V78.6831ZM130.487 71.1543H127.907V73.0434H130.54C131.265 73.0434 131.568 72.7329 131.568 72.0985C131.568 71.3373 131.108 71.1543 130.487 71.1543Z" fill="#949494"/>
<path d="M134.661 83.7212H134.207L134.202 83.2822H134.688C134.785 83.2822 134.835 83.2645 134.859 83.2321C134.865 83.2233 134.87 83.2137 134.873 83.2031C134.877 83.1889 134.879 83.173 134.879 83.1554C134.879 83.0751 134.834 83.0075 134.563 83.0075C134.454 83.0075 134.389 83.0115 134.345 83.0232C134.292 83.0374 134.272 83.0623 134.247 83.1046H133.508C133.546 82.6906 133.938 82.5568 134.572 82.5568C135.333 82.5568 135.629 82.7192 135.629 83.0922C135.629 83.2429 135.586 83.4044 135.325 83.4687V83.4741C135.391 83.4842 135.453 83.51 135.507 83.5487C135.536 83.5698 135.562 83.5948 135.585 83.6231C135.651 83.7036 135.684 83.8057 135.68 83.9096C135.68 84.2611 135.429 84.5217 134.621 84.5217C134.087 84.5217 133.489 84.4842 133.452 83.8507H134.174C134.176 83.8822 134.185 83.9125 134.202 83.9393C134.219 83.9661 134.242 83.9881 134.269 84.0032C134.316 84.0239 134.365 84.0385 134.416 84.0472C134.467 84.0562 134.52 84.0589 134.573 84.0549C134.897 84.0549 134.935 83.9604 134.935 83.8712C134.935 83.7533 134.838 83.7212 134.661 83.7212Z" fill="#949494"/>
<path d="M132.406 83.0904H130.98V82.6068H133.158V83.1867C132.484 83.698 132.212 84.0711 132.145 84.4718H131.236C131.284 84.0203 131.482 83.7461 132.406 83.0956V83.0904Z" fill="#949494"/>
<path fill-rule="evenodd" clip-rule="evenodd" d="M129.557 84.5217C128.997 84.5217 128.586 84.3985 128.505 83.9202H129.214C129.222 83.949 129.237 83.9753 129.257 83.9964C129.271 84.0101 129.286 84.0214 129.303 84.0297C129.312 84.0342 129.322 84.038 129.332 84.0407C129.405 84.0628 129.482 84.0729 129.558 84.0702C129.829 84.0702 129.968 83.9658 129.98 83.7212C129.933 83.7497 129.883 83.7718 129.831 83.7873L129.813 83.7925C129.799 83.7958 129.786 83.7988 129.772 83.8015C129.669 83.8201 129.565 83.8291 129.461 83.8282C128.955 83.8282 128.486 83.7016 128.486 83.2242C128.486 82.828 128.784 82.5602 129.481 82.5602C130.079 82.5602 130.658 82.663 130.658 83.5222C130.658 84.3432 130.151 84.5217 129.557 84.5217ZM129.207 83.2002C129.207 83.3189 129.344 83.3911 129.562 83.3911C129.844 83.3911 129.916 83.318 129.916 83.2002C129.916 83.0823 129.783 83.0093 129.562 83.0093C129.28 83.0093 129.207 83.0814 129.207 83.2002Z" fill="#949494"/>
<path d="M127.921 84.4736H127.264V83.4115H126.732V82.9449H126.834C127.142 82.9387 127.3 82.8674 127.389 82.6085H127.921V84.4736Z" fill="#949494"/>
<path fill-rule="evenodd" clip-rule="evenodd" d="M124.207 84.1621C124.371 84.1621 124.466 84.1219 124.534 84.0326L125.205 84.0317C125.179 84.1107 125.138 84.1835 125.085 84.2465C125.031 84.3092 124.965 84.3607 124.892 84.3976C124.684 84.4958 124.455 84.5417 124.226 84.5314C123.566 84.5314 123.19 84.2719 123.19 83.7365C123.19 83.2278 123.557 82.944 124.165 82.944C124.772 82.944 125.219 83.1608 125.209 83.8943H123.829C123.829 84.0005 123.932 84.1621 124.207 84.1621ZM124.202 83.2991C123.983 83.2991 123.858 83.3715 123.825 83.557H124.573C124.557 83.3983 124.421 83.2991 124.202 83.2991Z" fill="#949494"/>
<path d="M121.903 82.9449C122.493 82.9449 122.844 83.1055 122.912 83.5946H122.254C122.253 83.5557 122.242 83.5177 122.221 83.4848C122.209 83.4664 122.194 83.45 122.178 83.4361C122.165 83.4255 122.151 83.4163 122.135 83.4088C122.065 83.3762 121.988 83.3607 121.91 83.3634C121.629 83.3634 121.531 83.5303 121.531 83.7266C121.531 83.9523 121.657 84.0969 121.905 84.0969C122.077 84.0969 122.212 84.0434 122.254 83.8525H122.912C122.846 84.4619 122.335 84.5323 121.903 84.5323C121.326 84.5323 120.874 84.3369 120.874 83.7347C120.874 83.1323 121.314 82.9449 121.903 82.9449Z" fill="#949494"/>
<path d="M119.363 84.4736H118.737L118.741 83.0012H119.347V83.1849H119.353C119.417 83.0904 119.619 82.9618 119.92 82.9618C120.267 82.9618 120.526 83.1278 120.526 83.5366V84.4745H119.895V83.714C119.895 83.5276 119.803 83.4464 119.654 83.4464C119.567 83.4464 119.49 83.4759 119.438 83.5402C119.391 83.5971 119.363 83.6814 119.363 83.7963V84.4736Z" fill="#949494"/>
<path d="M118.31 82.8584H117.683L117.683 82.488H118.31V82.8584Z" fill="#949494"/>
<path d="M118.31 84.4736H117.683L117.683 83.0012H118.31V84.4736Z" fill="#949494"/>
<path d="M116.475 83.8379C116.455 83.8145 116.423 83.7963 116.375 83.7882L115.566 83.6632C115.22 83.6061 115.077 83.3902 115.077 83.1224C115.077 82.6254 115.531 82.4916 116.113 82.4916C116.911 82.4916 117.241 82.7111 117.266 83.1163H116.443C116.444 83.0823 116.434 83.0491 116.415 83.0214C116.395 82.9937 116.367 82.9731 116.335 82.9627C116.265 82.9337 116.19 82.92 116.114 82.9227C115.904 82.9227 115.831 82.9798 115.831 83.0601C115.831 83.0934 115.84 83.1197 115.863 83.137C115.878 83.1476 115.897 83.155 115.924 83.159L116.769 83.2937C117.126 83.3499 117.347 83.5276 117.347 83.8525C117.347 84.32 116.992 84.5404 116.194 84.5404C115.649 84.5404 115.052 84.4601 115.052 83.8952H115.905C115.904 83.9229 115.91 83.9503 115.924 83.9746C115.937 83.9989 115.957 84.0189 115.98 84.0326C116.057 84.0641 116.139 84.0778 116.222 84.0729C116.369 84.0729 116.445 84.0432 116.479 83.9969C116.496 83.9739 116.503 83.947 116.503 83.9175C116.503 83.8892 116.495 83.8611 116.475 83.8379Z" fill="#949494"/>
<path d="M112.407 84.4736H111.78V83.0012H112.387V83.1849H112.392C112.457 83.0904 112.659 82.9618 112.959 82.9618C113.305 82.9618 113.567 83.1278 113.567 83.5366V84.4745H112.939V83.714C112.939 83.624 112.917 83.5586 112.879 83.515C112.858 83.4921 112.833 83.475 112.803 83.4637C112.773 83.452 112.738 83.4464 112.699 83.4464C112.532 83.4464 112.407 83.5516 112.407 83.7963V84.4736Z" fill="#949494"/>
<path fill-rule="evenodd" clip-rule="evenodd" d="M110.412 84.5323C109.705 84.5323 109.396 84.2798 109.396 83.7374C109.396 83.1975 109.705 82.9449 110.412 82.9449C111.12 82.9449 111.428 83.1948 111.428 83.7374C111.428 84.2798 111.12 84.5323 110.412 84.5323ZM110.412 83.3803C110.161 83.3803 110.053 83.5062 110.053 83.7374C110.053 83.971 110.163 84.0942 110.412 84.0942C110.661 84.0942 110.767 83.9674 110.767 83.7374C110.767 83.5071 110.663 83.3803 110.412 83.3803Z" fill="#949494"/>
<path d="M109.044 82.8584H108.418V82.488H109.044V82.8584Z" fill="#949494"/>
<path d="M109.044 84.4736H108.418V83.0012H109.044V84.4736Z" fill="#949494"/>
<path d="M107.107 83.4223H106.816V83.0012H107.107V82.5283H107.734V83.0012H108.073V83.4178H107.734V83.9373C107.734 84.0738 107.787 84.0816 107.923 84.0816H108.091V84.4736C107.939 84.4949 107.787 84.5057 107.634 84.5055C107.253 84.5055 107.107 84.427 107.107 84.0272V83.4223Z" fill="#949494"/>
<path d="M105.589 82.9449C106.178 82.9449 106.53 83.1055 106.598 83.5946H105.94C105.939 83.5557 105.927 83.5179 105.907 83.4851C105.886 83.4525 105.857 83.4259 105.822 83.4088C105.751 83.3762 105.674 83.3607 105.596 83.3634C105.315 83.3634 105.217 83.5303 105.217 83.7266C105.217 83.8278 105.243 83.9125 105.293 83.9755C105.355 84.0529 105.454 84.0969 105.591 84.0969C105.706 84.0969 105.801 84.0742 105.865 84.0056C105.9 83.969 105.925 83.9191 105.94 83.8525H106.598C106.532 84.4619 106.021 84.5323 105.589 84.5323C105.012 84.5323 104.56 84.3369 104.56 83.7347C104.56 83.1323 104.999 82.9449 105.589 82.9449Z" fill="#949494"/>
<path d="M103.582 83.0012H104.209V84.4709H103.601V84.3065H103.597C103.531 84.4003 103.331 84.5298 103.029 84.5298C102.683 84.5298 102.422 84.3627 102.422 83.955V83.0012H103.049V83.7783C103.049 83.9658 103.142 84.0461 103.291 84.0461C103.486 84.0461 103.582 83.9148 103.582 83.6944V83.0012Z" fill="#949494"/>
<path d="M101.342 84.4709H100.716V83.0012H101.323V83.2831H101.327C101.359 83.233 101.398 83.1874 101.441 83.1473C101.483 83.1087 101.529 83.0751 101.579 83.0475C101.682 82.9913 101.796 82.9614 101.912 82.9609C101.981 82.9609 102.05 82.9663 102.118 82.9771V83.5784C102.016 83.5462 101.911 83.5283 101.804 83.5249C101.582 83.5249 101.342 83.6025 101.342 83.9202V84.4709Z" fill="#949494"/>
<path d="M99.4063 83.4196H99.1146V83.0012H99.4063V82.5283H100.033V83.0012H100.372V83.4151H100.033V83.9346C100.033 84.023 100.055 84.0574 100.108 84.0709C100.136 84.078 100.173 84.0792 100.221 84.0792H100.389V84.4709C100.287 84.4853 100.185 84.4947 100.082 84.4997C100.032 84.5019 99.9826 84.503 99.9329 84.503C99.5517 84.503 99.4063 84.4243 99.4063 84.0245V83.4196Z" fill="#949494"/>
<path d="M98.1605 83.9811C98.1439 83.9645 98.1213 83.955 98.0978 83.955L97.4914 83.8844C97.1279 83.8444 97.0216 83.6881 97.0216 83.4322C97.0216 83.0859 97.323 82.9387 97.9356 82.9387C98.362 82.9387 98.8309 83.0216 98.8433 83.4374H98.1342C98.1352 83.4196 98.1314 83.4019 98.123 83.3861C98.1148 83.3704 98.1023 83.3574 98.0871 83.3481C98.0295 83.3194 97.9652 83.3065 97.901 83.3108C97.7929 83.3108 97.7353 83.3259 97.7058 83.3493C97.684 83.3666 97.6776 83.3886 97.6776 83.4124C97.6776 83.4482 97.7104 83.4882 97.846 83.5017L98.4427 83.5579C98.7822 83.5928 98.9098 83.7542 98.9098 84.0041C98.9098 84.3825 98.5933 84.528 97.9409 84.528C97.2884 84.528 97.0056 84.3825 96.9852 84.0122H97.7228C97.7247 84.0369 97.7329 84.061 97.7465 84.0816C97.7601 84.1023 97.7788 84.1194 97.8008 84.1309C97.8206 84.1381 97.8407 84.1439 97.8612 84.1484C97.8995 84.1568 97.9388 84.1599 97.9781 84.1577C98.1386 84.1577 98.1864 84.112 98.1864 84.0443C98.1864 84.0388 98.1859 84.0334 98.185 84.028C98.1843 84.0243 98.1833 84.0205 98.1822 84.0169C98.1779 84.0036 98.1705 83.9912 98.1605 83.9811Z" fill="#949494"/>
<path d="M95.4861 84.4709H94.8585V83.0012H95.4657V83.1849H95.4711C95.5367 83.0904 95.737 82.9618 96.0384 82.9618C96.3842 82.9618 96.6457 83.1278 96.6457 83.5366V84.4718H96.018V83.7115C96.018 83.5249 95.9249 83.4437 95.7769 83.4437C95.6111 83.4437 95.4861 83.5489 95.4861 83.7936V84.4709Z" fill="#949494"/>
<path fill-rule="evenodd" clip-rule="evenodd" d="M93.4915 84.5298C92.7832 84.5298 92.4746 84.2771 92.4746 83.7347L92.4711 83.7374C92.4711 83.1975 92.7787 82.9449 93.4879 82.9449C94.1971 82.9449 94.5074 83.1921 94.5074 83.7347C94.5074 84.2771 94.1998 84.5298 93.4915 84.5298ZM93.4835 83.3803C93.2361 83.3803 93.1289 83.5062 93.1289 83.7374C93.1289 83.8644 93.1601 83.9589 93.2286 84.0185C93.2861 84.0686 93.3699 84.0942 93.4835 84.0942C93.7326 84.0942 93.8381 83.9674 93.8381 83.7374C93.8381 83.5071 93.7309 83.3803 93.4835 83.3803Z" fill="#949494"/>
<path d="M90.98 84.0567C91.2034 84.0567 91.3364 83.9577 91.394 83.7266H92.1919C92.1578 83.917 92.102 84.0798 92.0026 84.2082C91.9702 84.2503 91.933 84.2885 91.8905 84.3227C91.7176 84.4619 91.441 84.5404 91.0146 84.5404C90.5882 84.5404 89.7903 84.5082 89.7903 83.5143C89.7903 82.5202 90.5882 82.488 91.0146 82.488C91.441 82.488 92.0988 82.5469 92.1919 83.3072H91.394C91.3911 83.2661 91.3812 83.226 91.3652 83.1889C91.3443 83.1406 91.313 83.0967 91.2729 83.0612C91.2022 82.9982 91.1098 82.9659 91.0155 82.9708C90.7265 82.9708 90.5429 83.1242 90.5429 83.5143C90.5429 83.9042 90.7221 84.0567 90.98 84.0567Z" fill="#949494"/>
<path fill-rule="evenodd" clip-rule="evenodd" d="M87.3515 84.1621C87.5146 84.1621 87.6104 84.1219 87.6778 84.0326L88.3489 84.0317C88.3233 84.1107 88.2824 84.1837 88.2285 84.2465C88.1746 84.3092 88.1089 84.3607 88.035 84.3976C87.8275 84.4961 87.5993 84.5419 87.3702 84.5314C86.7106 84.5314 86.3338 84.2719 86.3338 83.7365C86.3338 83.2278 86.7017 82.944 87.309 82.944C87.9163 82.944 88.363 83.1608 88.3524 83.8943H86.973C86.973 84.0005 87.0758 84.1621 87.3515 84.1621ZM87.0863 83.3618C87.0267 83.4032 86.9889 83.4669 86.973 83.557H87.7212C87.7079 83.3983 87.5669 83.2991 87.3489 83.2991C87.2369 83.2991 87.1494 83.3182 87.0863 83.3618Z" fill="#949494"/>
<path d="M84.8232 84.4736H84.1964L84.1938 83.0012H84.8002V83.1849H84.8082C84.8737 83.0904 85.0741 82.9618 85.3755 82.9618C85.7168 82.9618 85.9828 83.1278 85.9828 83.5366V84.4745H85.3551V83.714C85.3551 83.5276 85.262 83.4464 85.1149 83.4464C84.9482 83.4464 84.8232 83.5516 84.8232 83.7963V84.4736Z" fill="#949494"/>
<path d="M83.7691 82.8584H83.1424V82.488H83.7691V82.8584Z" fill="#949494"/>
<path d="M83.7691 84.4736H83.1424V83.0012H83.7691V84.4736Z" fill="#949494"/>
<path d="M82.0626 84.4736H81.4358V83.0012H82.0422V83.2858H82.0475C82.1107 83.1874 82.1973 83.1062 82.2995 83.05C82.3366 83.0295 82.3753 83.0126 82.4151 82.9994C82.4851 82.976 82.5584 82.9638 82.6326 82.9636C82.7015 82.9636 82.7703 82.969 82.8383 82.9798V83.5811C82.7864 83.5649 82.7335 83.5521 82.68 83.5431C82.6658 83.5407 82.6516 83.5387 82.6374 83.5368C82.63 83.5358 82.6226 83.535 82.6152 83.5341C82.5851 83.5307 82.5548 83.5287 82.5245 83.5276C82.3011 83.5276 82.0626 83.6052 82.0626 83.9229V84.4736Z" fill="#949494"/>
<path fill-rule="evenodd" clip-rule="evenodd" d="M80.0822 83.2831C80.0104 83.2831 79.9364 83.2894 79.8776 83.3153C79.8223 83.3396 79.7802 83.381 79.7657 83.45H79.1451C79.1779 83.2483 79.2612 83.1224 79.4111 83.0475C79.4681 83.0189 79.5365 82.9973 79.6175 82.9816C79.7495 82.9562 79.915 82.9458 80.1202 82.9458C80.7603 82.9458 81.0139 83.0983 81.0139 83.5366V84.2442C81.0101 84.3247 81.0301 84.4046 81.0715 84.4736H80.4296C80.4161 84.4261 80.4083 84.3773 80.4066 84.3281C80.2666 84.4682 80.0529 84.5323 79.7187 84.5323C79.2976 84.5323 79.0316 84.412 79.0316 84.0353C79.0316 83.7668 79.2098 83.5946 79.6735 83.573L80.2054 83.5462C80.3312 83.5384 80.3729 83.5062 80.3729 83.425C80.3729 83.3286 80.2595 83.2831 80.0822 83.2831ZM79.943 84.1781C80.1531 84.1781 80.3862 84.1219 80.3862 83.8685L80.3871 83.8042C80.2192 83.8334 80.05 83.8539 79.88 83.8658C79.7648 83.8775 79.7098 83.9096 79.7098 84.0113C79.7098 84.0322 79.7131 84.0515 79.7197 84.0691C79.7316 84.101 79.7544 84.1268 79.7879 84.1455C79.8065 84.1559 79.8284 84.1639 79.8537 84.1696C79.8799 84.1752 79.9096 84.1781 79.943 84.1781Z" fill="#949494"/>
<path d="M76.7329 84.4736H76.0929V82.555H77.0875L77.3828 83.6695H77.3881L77.6815 82.555H78.6762V84.4736H78.0334V83.1028H78.0281L77.6522 84.4736H77.115L76.7383 83.1028H76.7329V84.4736Z" fill="#949494"/>
<path d="M73.144 84.9885C73.0879 84.9845 73.035 84.98 72.9901 84.9759L72.991 84.5377C73.0427 84.5437 73.0948 84.5464 73.147 84.5458C73.2455 84.5458 73.2994 84.5426 73.3417 84.4949C73.3553 84.4794 73.3678 84.4594 73.3801 84.4333L73.4156 84.3522L72.7782 83.0012H73.4351L73.7392 83.756L74.0424 83.0012H74.7002L73.9289 84.7126C73.8314 84.9224 73.7534 85 73.4165 85C73.3305 85 73.2332 84.9948 73.144 84.9885Z" fill="#949494"/>
<path d="M71.6727 83.4223H71.382L71.3828 83.0012H71.6736V82.5283H72.3004V83.0012H72.6399V83.4178H72.2995V83.9373C72.2995 84.0738 72.3518 84.0816 72.4874 84.0816H72.655V84.4736C72.5058 84.4947 72.3553 84.5053 72.2046 84.5055C71.819 84.5055 71.6727 84.427 71.6727 84.0272V83.4223Z" fill="#949494"/>
<path d="M71.0832 82.8584H70.4564V82.488H71.0832V82.8584Z" fill="#949494"/>
<path d="M71.0832 84.4736H70.4564V83.0012H71.0832V84.4736Z" fill="#949494"/>
<path d="M70.0291 84.4736H69.4024V82.488H70.0291V84.4736Z" fill="#949494"/>
<path fill-rule="evenodd" clip-rule="evenodd" d="M67.8048 83.3364C67.7692 83.3616 67.7432 83.3978 67.7322 83.45H67.1107C67.1489 83.2483 67.2322 83.1224 67.382 83.0475C67.5318 82.9726 67.7596 82.9458 68.0912 82.9458C68.7313 82.9458 68.984 83.0983 68.984 83.5366V84.2442C68.9804 84.3247 69.0007 84.4046 69.0424 84.4736H68.3997C68.3854 84.4261 68.3764 84.3773 68.3731 84.3281C68.2322 84.4682 68.0194 84.5323 67.6852 84.5323C67.2641 84.5323 66.9981 84.412 66.9981 84.0353C66.9981 83.7668 67.1755 83.5946 67.64 83.573L68.1719 83.5462C68.2403 83.542 68.2843 83.5305 68.3101 83.5076C68.3315 83.4887 68.3404 83.4619 68.3404 83.425C68.3404 83.3286 68.226 83.2831 68.0487 83.2831C67.9972 83.2831 67.9458 83.2863 67.8998 83.2969C67.8643 83.305 67.8318 83.3176 67.8048 83.3364ZM67.9095 84.1781C68.1196 84.1781 68.3528 84.1219 68.3528 83.8685L68.3537 83.8042C68.1858 83.8334 68.0165 83.8539 67.8465 83.8658C67.7313 83.8775 67.6755 83.9096 67.6755 84.0113C67.6755 84.1129 67.7534 84.1781 67.9095 84.1781Z" fill="#949494"/>
<path d="M66.0416 83.0039H66.6684V84.4709H66.062V84.3065H66.0567C65.992 84.4003 65.7907 84.5298 65.4893 84.5298C65.1436 84.5298 64.8829 84.3627 64.8829 83.955V83.0012H65.5097V83.781C65.5097 83.9683 65.6028 84.0488 65.7508 84.0488C65.9468 84.0488 66.0416 83.9175 66.0416 83.6971V83.0039Z" fill="#949494"/>
<path fill-rule="evenodd" clip-rule="evenodd" d="M64.5292 84.5163L64.2331 84.868L63.8396 84.4869C63.766 84.5044 63.6913 84.517 63.6161 84.5244C63.5634 84.53 63.5107 84.5341 63.4578 84.5368C63.4069 84.5395 63.356 84.5406 63.305 84.5404C62.8777 84.5404 62.0798 84.5082 62.0798 83.5143C62.0798 82.5202 62.8786 82.488 63.305 82.488C63.7314 82.488 64.5292 82.5202 64.5292 83.5143C64.5292 83.8766 64.4211 84.1129 64.2633 84.2638L64.5292 84.5163ZM63.3901 84.0515L63.2775 83.9391L63.5611 83.6025L63.7385 83.7668C63.763 83.685 63.7747 83.5998 63.773 83.5143C63.773 83.1242 63.5904 82.9708 63.3014 82.9708C63.0124 82.9708 62.8289 83.1242 62.8289 83.5143C62.8289 83.9042 63.0124 84.0567 63.3014 84.0567C63.331 84.0569 63.3606 84.0551 63.3901 84.0515Z" fill="#949494"/>
</g>
</svg>
