<svg width="200" height="100" viewBox="0 0 200 100" fill="none" xmlns="http://www.w3.org/2000/svg">
<mask id="mask0_1429_116" style="mask-type:alpha" maskUnits="userSpaceOnUse" x="0" y="0" width="200" height="100">
<rect width="200" height="100" fill="#222222"/>
</mask>
<g mask="url(#mask0_1429_116)">
<path d="M107.725 35.0092C107.22 35.0092 105.724 35.0275 104.769 36.0543C104.161 36.7052 104.115 37.4325 104.115 38.499V45.6591C104.115 46.3864 104.115 47.4132 105.161 48.1038C105.928 48.608 107.032 48.7364 107.725 48.7364C111.317 48.7364 111.317 46.4444 111.317 45.3749V41.2585H107.716V43.2602H108.902V45.2251C108.902 46.0288 108.902 46.8478 107.762 46.8478C106.679 46.8478 106.545 46.1388 106.545 45.3565V38.3065C106.545 37.7106 106.603 36.8702 107.671 36.8702C108.738 36.8702 108.902 37.4295 108.902 38.4196V40.0881H111.317V38.0559C111.317 37.1239 111.317 35 107.725 35V35.0092Z" fill="#949494"/>
<path fill-rule="evenodd" clip-rule="evenodd" d="M91.861 35.2873H95.7784C96.5631 35.2873 97.5182 35.2873 98.3242 36.1093C99.0146 36.8183 99.1088 37.7137 99.1088 38.7557V44.9104C99.1088 46.7378 98.8321 48.4552 95.7632 48.4552H91.861V35.2873ZM95.8241 46.4964C96.703 46.365 96.703 45.601 96.703 45.1182L96.7152 38.551C96.7152 37.3775 96.3229 37.2094 95.2583 37.2094H94.3033V46.5331C94.8104 46.5576 95.3187 46.5453 95.8241 46.4964Z" fill="#949494"/>
<path d="M100.374 35.2903H102.789V48.4552H100.374V35.2903Z" fill="#949494"/>
<path d="M112.762 35.2903H115.177V48.4552H112.762V35.2903Z" fill="#949494"/>
<path d="M116.418 35.2903V37.1911H118.848V48.4552H121.299V37.1911H123.733V35.2903H116.418Z" fill="#949494"/>
<path fill-rule="evenodd" clip-rule="evenodd" d="M122.89 48.4552L125.451 35.2873H128.228L130.698 48.4552H128.228L127.924 46.3161H125.679L125.323 48.4552H122.89ZM127.659 44.2778L126.856 38.6274L125.977 44.2778H127.659Z" fill="#949494"/>
<path d="M131.835 35.2903V48.4552H137.839V46.4597H134.247V35.2903H131.835Z" fill="#949494"/>
<path d="M97.3783 60.7614L98.9324 51.5478H102.844V64.7127H100.429L100.654 53.3019L98.5219 64.7127H96.2377L94.0691 53.3019L94.2547 64.7127H91.861V51.5478H95.8088L97.3783 60.7614Z" fill="#949494"/>
<path d="M104.021 51.5295V64.7127H110.587V62.6805H106.454V58.6345H110.177V56.639H106.454V53.5433H110.42V51.5295H104.021Z" fill="#949494"/>
<path fill-rule="evenodd" clip-rule="evenodd" d="M111.865 51.5478H115.791C116.576 51.5478 117.531 51.5478 118.334 52.3668C119.028 53.0758 119.119 53.9712 119.119 55.0163V61.1709C119.119 62.9984 118.842 64.7127 115.773 64.7127H111.865V51.5478ZM115.828 62.7539C116.707 62.6255 116.707 61.8585 116.707 61.3757V54.8115C116.707 53.635 116.315 53.4669 115.247 53.4669H114.292V62.7906C114.804 62.8156 115.317 62.8034 115.828 62.7539Z" fill="#949494"/>
<path d="M122.79 51.5478H120.375V64.7158H122.79V51.5478Z" fill="#949494"/>
<path d="M124.77 52.3118C125.725 51.285 127.221 51.2667 127.726 51.2667L127.735 51.2636C131.33 51.2636 131.33 53.3875 131.33 54.3195V56.3517H128.915V54.674C128.915 53.6839 128.748 53.1247 127.681 53.1247C126.613 53.1247 126.558 53.9651 126.558 54.561V61.611C126.558 62.3933 126.689 63.1023 127.775 63.1023C128.915 63.1023 128.915 62.2833 128.915 61.4796V59.7744H131.321V61.6385C131.321 62.705 131.321 65 127.726 65C127.036 65 125.932 64.8686 125.165 64.3644C124.116 63.6707 124.116 62.6469 124.116 61.9196V54.7565C124.116 53.69 124.162 52.9627 124.77 52.3118Z" fill="#949494"/>
<path fill-rule="evenodd" clip-rule="evenodd" d="M134.238 51.5478L131.677 64.7127H134.11L134.466 62.5736H136.711L137.03 64.7127H139.5L137.03 51.5478H134.238ZM135.643 54.8849L136.446 60.5353H134.764L135.643 54.8849Z" fill="#949494"/>
<path d="M140.996 64.7127V51.5478H143.408V62.7172H147V64.7127H140.996Z" fill="#949494"/>
<path d="M68.6271 35.2689H64.661V38.8505H68.6271V35.2689Z" fill="#949494"/>
<path d="M70.5037 35.2689H74.4698V38.8505H70.5037V35.2689Z" fill="#949494"/>
<path d="M68.6271 40.4976H64.661V44.0791H68.6271V40.4976Z" fill="#949494"/>
<path d="M70.5037 40.4976H74.4698V44.0791H70.5037V40.4976Z" fill="#949494"/>
<path d="M68.6271 45.7263H64.661V49.3078H68.6271V45.7263Z" fill="#949494"/>
<path d="M70.5037 45.7263H74.4698V49.3078H70.5037V45.7263Z" fill="#949494"/>
<path d="M68.6271 50.955H64.661V54.5365H68.6271V50.955Z" fill="#949494"/>
<path d="M70.5037 50.955H74.4698V54.5365H70.5037V50.955Z" fill="#949494"/>
<path d="M56.9661 45.7263H53V49.3078H56.9661V45.7263Z" fill="#949494"/>
<path d="M58.8427 45.7263H62.8088V49.3078H58.8427V45.7263Z" fill="#949494"/>
<path d="M56.9661 50.955H53V54.5365H56.9661V50.955Z" fill="#949494"/>
<path d="M58.8427 50.955H62.8088V54.5365H58.8427V50.955Z" fill="#949494"/>
<path d="M80.279 45.7263H76.313V49.3078H80.279V45.7263Z" fill="#949494"/>
<path d="M82.1587 45.7263H86.1248V49.3078H82.1587V45.7263Z" fill="#949494"/>
<path d="M80.279 50.955H76.313V54.5365H80.279V50.955Z" fill="#949494"/>
<path d="M82.1587 50.955H86.1248V54.5365H82.1587V50.955Z" fill="#949494"/>
<path d="M68.6271 56.1837H64.661V59.7652H68.6271V56.1837Z" fill="#949494"/>
<path d="M70.5037 56.1837H74.4698V59.7652H70.5037V56.1837Z" fill="#949494"/>
<path d="M68.6271 61.4123H64.661V64.9939H68.6271V61.4123Z" fill="#949494"/>
<path d="M70.5037 61.4123H74.4698V64.9939H70.5037V61.4123Z" fill="#949494"/>
</g>
</svg>
